<?xml version="1.0" encoding="utf-8"?>
<!-- Generator: Adobe Illustrator 19.2.1, SVG Export Plug-In . SVG Version: 6.00 Build 0)  -->
<svg version="1.1" id="Layer_1" xmlns="http://www.w3.org/2000/svg" xmlns:xlink="http://www.w3.org/1999/xlink" x="0px" y="0px"
	 viewBox="0 0 115 115" style="enable-background:new 0 0 115 115;" xml:space="preserve">
<style type="text/css">
	.st0{fill:#F68625;}
	.st1{fill:#513D97;}
</style>
<g>
	<path class="st0" d="M115,57.52c0,31.76-25.74,57.5-57.5,57.5C25.74,115.02,0,89.28,0,57.52s25.74-57.5,57.5-57.5
		C89.26,0.02,115,25.77,115,57.52L115,57.52z"/>
</g>
<g>
	<g>
		<g>
			<path class="st1" d="M58.18,56.2c-29.51-7.43-40.7-13.82-38.63-22.06c2.39-9.5,22.05-19.23,47.41-12.85
				c26.09,6.57,37.34,22.87,35.13,31.64C99.77,62.18,77.7,61.11,58.18,56.2z M66.61,22.71c-25.96-6.53-43.77,4.36-45.63,11.78
				c-1.8,7.13,9.59,12.59,37.72,19.67c18.96,4.77,38.18,5.76,40.15-2.06C100.9,43.93,91.79,29.05,66.61,22.71z"/>
		</g>
	</g>
	<g>
		<g>
			<path class="st1" d="M56.76,83.15c-0.78-0.29-1.65-0.82-1.59-1.66c-0.93-0.21-1.85-0.39-2.79-0.63c-2.8-0.71-5.53-1.5-8.14-2.35
				c-0.14,0.18-0.32,0.34-0.58,0.44c-0.66,0.25-1.48,0.03-2.21-0.37c-1.2-0.21-2.94-0.6-3.51-1.77c-0.11-0.22-0.14-0.44-0.13-0.65
				c-0.78-0.31-1.58-0.62-2.33-0.94c-0.21,0.08-0.44,0.12-0.71,0.08c-0.72-0.13-1.4-0.38-2.04-0.68c-0.04,0-0.08,0.03-0.12,0.02
				c-1.35-0.11-2.54-0.57-3.74-1.16c-0.75-0.37-0.81-1.1-0.5-1.67c-0.42-0.23-0.88-0.46-1.29-0.69c-1.21,0.32-2.39,0.15-3.57-0.32
				c6.83,4.44,16.82,8.62,28.49,11.56c2.07,0.52,4.1,0.96,6.11,1.36C57.63,83.54,57.19,83.31,56.76,83.15z"/>
		</g>
		<g>
			<path class="st1" d="M76.86,85.43L76.86,85.43C76.86,85.42,76.86,85.42,76.86,85.43c-0.12-0.05-0.22-0.07-0.33-0.13
				c-0.08-0.04-0.13-0.1-0.2-0.15c-0.32,0.3-0.82,0.39-1.24,0.32c-1.2-0.21-2.39-0.5-3.56-0.87c-0.2,0.32-0.53,0.57-1.01,0.59
				c-0.57,0.03-1.12-0.07-1.66-0.27c-0.55-0.2-0.94-0.65-0.97-1.21c-1.35-0.16-2.71-0.34-4.1-0.55c-0.31,0.45-0.81,0.75-1.41,0.78
				c-0.15,0.01-0.29-0.01-0.44-0.02c-0.25,0.23-0.57,0.37-0.93,0.38c6.28,1.11,12.12,1.61,17.2,1.57
				C77.75,85.76,77.3,85.62,76.86,85.43z"/>
		</g>
		<g>
			<path class="st1" d="M95.63,83.1c-0.42,0.03-0.89-0.13-1.3-0.37l-1.4,2.73c-1.73,6.87-20.68,8.14-42.39,2.68
				s-38.8-15-37.07-21.87l1.08-4.29c1,2.19,3.08,4.48,6,6.73c-0.15-0.63,0.17-1.18,0.67-1.44c-2.7-2.09-4.84-4.37-5.66-6.84
				c-0.94-0.08-1.56-0.49-2.26,0.18l-1.33,5.27c-2,7.95,14.68,18.78,37.98,24.64s43.12,4.23,45.12-3.73l0.95-3.75
				C95.88,83.07,95.76,83.09,95.63,83.1z"/>
		</g>
		<g>
			<path class="st1" d="M83.58,85.41c-0.01,0.06-0.04,0.12-0.06,0.17c2.05-0.21,3.91-0.54,5.56-0.98c-1.19,0.06-2.47-0.23-3.48-0.52
				c-0.2-0.06-0.37-0.15-0.5-0.26c-0.63,0.09-1.28,0.17-1.95,0.23C83.48,84.38,83.7,84.75,83.58,85.41z"/>
		</g>
	</g>
	<g>
		<g>
			<g>
				<path class="st1" d="M100.86,73.66c0.19-0.89,0.57-3.08,0.02-4.24c-0.2-0.43-0.47-0.72-0.7-0.98c-0.13-0.14-0.27-0.29-0.41-0.49
					l-0.39-0.57c-0.58-0.87-1.25-1.85-2.1-2.68c-0.23-0.22-0.48-0.42-0.72-0.63c0.06,0.59-0.08,1.22-0.45,1.82l0.01,0.01
					c0.73,0.7,1.34,1.61,1.87,2.41l0.4,0.59c0.18,0.26,0.37,0.47,0.54,0.66c0.19,0.21,0.33,0.37,0.43,0.57
					c0.18,0.39,0.2,1.61-0.14,3.19c-0.01,0.06-0.01,0.07-0.14,0.18c-0.17,0.16-0.42,0.4-0.57,0.83c-0.13,0.37-0.22,0.8-0.31,1.21
					c-0.07,0.32-0.17,0.81-0.17,0.85c-0.57,0.47-1.26,0.9-2.06,1.29c-1.24,0.6-2.76,0.9-4.52,1.24l-1.5,0.3
					c-1.96,0.4-4.18,0.84-6.5,0.94c-2.64,0.11-5.51-0.18-8.55-0.49c-0.82-0.08-1.65-0.17-2.51-0.25c-0.74-0.07-1.52-0.06-2.26-0.06
					c-0.87,0.01-1.77,0.01-2.62-0.1c-0.63-0.09-1.23-0.31-1.84-0.52c-0.66-0.23-1.34-0.47-2.04-0.59c-1.2-0.2-2.42-0.36-3.66-0.53
					c-2.14-0.28-4.36-0.57-6.52-1.11l-0.2,0.81l0.2-0.81c-1.5-0.38-2.96-0.92-4.39-1.45c-0.99-0.37-1.97-0.73-2.96-1.04
					c-1.13-0.35-2.25-0.67-3.35-0.98c-1.97-0.55-3.82-1.07-5.57-1.77c-0.65-0.26-1.13-0.63-1.64-1.03c-0.52-0.4-1.05-0.81-1.76-1.13
					c-0.75-0.34-1.63-0.57-2.47-0.79c-0.89-0.23-1.72-0.46-2.33-0.77c-1.39-0.72-2.53-1.59-3.63-2.43c-0.66-0.5-1.31-1-1.99-1.45
					c-0.56-0.37-1.19-0.65-1.79-0.93c-0.64-0.29-1.25-0.56-1.66-0.89c-1.23-0.97-2.24-2.21-3.13-3.31l-0.55-0.68
					c-0.27-0.32-0.54-0.57-0.79-0.8c-0.29-0.26-0.52-0.47-0.68-0.75c-0.2-0.35-0.37-0.69-0.51-1.03c-0.03-0.11,0.05-0.51,0.12-0.84
					l0.11-0.54c0.04-0.23,0.07-0.5,0.1-0.79c0.04-0.37,0.08-0.8,0.17-1.07c0.58-1.78,1.29-2.88,1.71-3.16
					c0.51-0.34,1.08-0.51,1.81-0.72c0.37-0.11,0.77-0.22,1.19-0.37c0.34-0.12,0.71-0.31,1.1-0.5c0.32-0.16,0.64-0.31,0.95-0.43
					c-0.03-0.03-0.07-0.05-0.1-0.09s-0.06-0.08-0.09-0.12c-0.09-0.07-0.18-0.12-0.26-0.2c-0.31-0.27-0.4-0.68-0.35-1.07
					c-0.32,0.13-0.63,0.28-0.91,0.43c-0.32,0.16-0.62,0.32-0.9,0.42c-0.39,0.14-0.76,0.24-1.11,0.35c-0.79,0.23-1.54,0.45-2.26,0.93
					c-1.22,0.81-2.06,3.09-2.37,4.04c-0.15,0.45-0.2,0.96-0.25,1.42c-0.02,0.23-0.05,0.46-0.08,0.64l-0.1,0.51
					c-0.15,0.7-0.27,1.26-0.04,1.81c0.17,0.4,0.37,0.81,0.6,1.23c0.29,0.51,0.65,0.84,1,1.16c0.2,0.19,0.42,0.38,0.63,0.64
					l0.54,0.66c0.9,1.1,2.02,2.48,3.39,3.56c0.57,0.45,1.3,0.78,2.01,1.1c0.55,0.25,1.11,0.5,1.56,0.8c0.65,0.43,1.27,0.91,1.9,1.39
					c1.16,0.88,2.36,1.8,3.88,2.58c0.77,0.4,1.74,0.65,2.67,0.9c0.78,0.21,1.59,0.42,2.21,0.7c0.54,0.25,0.97,0.58,1.43,0.93
					c0.55,0.43,1.18,0.91,2.04,1.26c1.84,0.73,3.74,1.27,5.75,1.83c1.09,0.3,2.19,0.61,3.31,0.96c0.96,0.3,1.91,0.66,2.88,1.01
					c1.46,0.55,2.98,1.11,4.56,1.5h0.01c2.25,0.57,4.52,0.86,6.71,1.15c1.22,0.16,2.42,0.32,3.59,0.52c0.61,0.1,1.19,0.31,1.76,0.52
					c0.72,0.25,1.42,0.5,2.17,0.6c0.96,0.13,1.93,0.12,2.86,0.12c0.74,0,1.43-0.01,2.09,0.05c0.85,0.08,1.68,0.16,2.5,0.25
					c3.1,0.32,6.03,0.61,8.79,0.5c2.45-0.1,4.74-0.57,6.76-0.97l1.49-0.29c1.87-0.37,3.49-0.68,4.92-1.38
					c0.92-0.44,1.72-0.95,2.39-1.5c0.44-0.36,0.57-1,0.74-1.8c0.07-0.35,0.15-0.71,0.25-1.02c0.01-0.04,0.03-0.06,0.14-0.17
					C100.43,74.53,100.74,74.23,100.86,73.66z"/>
			</g>
		</g>
		<g>
			<g>
				<path class="st1" d="M54.51,72.37c-3.21-0.81-6.24-1.89-9.16-2.95l-2.1-0.75c-0.85-0.3-1.7-0.59-2.53-0.87
					c-2.32-0.79-4.51-1.53-6.58-2.48c-1.63-0.75-3.11-1.68-4.53-2.58c-0.68-0.43-1.33-0.84-1.98-1.22l-1.4-0.8
					c-2.37-1.36-4.42-2.54-6.08-4.02c-2.15-1.93-4-4.48-3.19-4.97c1.29,0.33,2.29,2.01,4.26,3.78c1.53,1.37,3.51,2.51,5.81,3.83
					l1.41,0.81c0.66,0.38,1.34,0.81,2.03,1.25c1.38,0.87,2.81,1.77,4.35,2.48c1.98,0.91,4.14,1.64,6.42,2.41
					c0.84,0.28,1.69,0.57,2.55,0.87l2.11,0.75c2.89,1.04,5.87,2.11,9.01,2.9c1.5,0.38,3.05,0.62,4.55,0.85
					c0.94,0.14,1.87,0.29,2.77,0.46l1.02,0.2c4.18,0.81,8.13,1.57,11.85,1.83c1.97,0.14,3.92,0.02,5.8-0.09
					c0.81-0.05,1.59-0.1,2.35-0.12c0.73-0.02,1.41,0.01,2.08,0.05c0.81,0.05,1.58,0.09,2.31,0c1.33-0.16,2.68-0.62,3.87-1.03
					c0.53-0.18,1.04-0.35,1.51-0.49l0.96-0.27c1.6-0.45,2.3-1.13,3.49-0.83c1.19,0.3-1.33,1.88-3.06,2.37c0,0-1.88,0.57-2.38,0.74
					c-1.27,0.43-2.7,0.92-4.2,1.1c-0.88,0.11-1.75,0.05-2.6,0c-0.62-0.04-1.26-0.07-1.94-0.05c-0.75,0.03-1.52,0.07-2.31,0.12
					c-1.93,0.12-3.93,0.24-6.01,0.09c-3.81-0.27-7.81-1.04-12.04-1.85l-1.02-0.2c-0.89-0.17-1.8-0.31-2.71-0.45
					C57.67,73.01,56.09,72.77,54.51,72.37z"/>
			</g>
		</g>
	</g>
	<g>
		<g>
			<path class="st1" d="M76.33,62.73c-0.19-0.14-0.39-0.25-0.62-0.32c-0.35-0.12-0.59-0.34-0.76-0.61
				c-0.03-0.02-0.07-0.04-0.11-0.06c-0.13-0.09-0.22-0.2-0.31-0.32c-0.06,0.97-0.25,2.09-0.25,2.11c-0.16,0.84-1.86,1.96-6.11,2.36
				c-4.09,0.39-9.38,0.02-14.9-1.04c-1.35-0.26-2.7-0.55-4.01-0.88c-9.7-2.44-14.34-5.69-14.96-7.54c-0.12-0.53-0.03-1.87,0.05-2.74
				c-0.45,0.08-0.93-0.03-1.25-0.41c-0.07-0.04-0.13-0.07-0.18-0.12c-0.15-0.05-0.3-0.1-0.45-0.15c-0.14,1.24-0.05,1.69-0.13,2.48
				c-0.5,4.43,8.34,8.31,16.46,10.35c1.34,0.34,2.72,0.64,4.12,0.91c5.69,1.09,11.17,1.47,15.44,1.06c4.72-0.45,7.43-1.81,7.83-3.93
				C76.25,63.59,76.3,63.17,76.33,62.73z"/>
		</g>
		<g>
			<path class="st1" d="M71.45,62.69c0.02-0.09,0.04-0.18,0.06-0.27c-0.84,0.22-1.86,0.41-3.14,0.53c-4.09,0.39-9.38,0.02-14.9-1.03
				c-1.36-0.26-2.7-0.56-4.01-0.89c-6.18-1.55-10.3-3.44-12.65-5.08c0.03,0.76,6.88,5.1,11.81,6.35c1.34,0.34,2.72,0.64,4.12,0.91
				c5.69,1.09,11.17,1.47,15.44,1.06C69.6,64.14,71.31,63.32,71.45,62.69z"/>
		</g>
	</g>
	<g>
		<g>
			<path class="st1" d="M52.55,53.27c-0.21,0.12-0.36-0.22-0.67-0.2c-0.04,0.01-0.08,0.02-0.13,0.02c-0.48,0.19-1.23,1-1.94,1.12
				c-0.42,0.07-0.7-0.56-1.21-0.51c-0.42,0.04-1,0.65-1.43,0.56c-0.44-0.1-0.8-0.59-1.31-0.59c-0.82,0-1.89,0.81-2.78,0.75
				c-0.59-0.04-1.02-0.78-1.64-0.85c-0.67-0.07-1.51,0.54-2.2,0.44c-0.45-0.06-1.94-1.12-2.34-1.19c-0.68-0.13-1.55,0.49-2.21,0.34
				c-0.38-0.09-1.58-1.2-1.89-1.29c-0.77-0.21-1.68,0.35-2.36,0.13c-0.96-0.31-1.03-1.23-1.82-1.55c-0.41-0.17-0.99,0.44-1.36,0.27
				c-0.2-0.09-0.81-1.07-1-1.16s-0.55,0.56-0.72,0.47c-0.52-0.26-0.79-1.3-1.2-1.55c-0.28-0.18-0.74,0.41-0.97,0.24
				c-0.44-0.32-0.59-1.4-0.85-1.69c-0.28-0.31-0.64,0.18-0.73-0.07c-0.14-0.63,0.09-2.73,0.1-2.77c0.12-0.64,1.12-1.21,2.83-1.57
				c-0.45-0.32-0.9-0.65-1.35-0.97c-0.07-0.05-0.12-0.12-0.17-0.18c-1.61,0.52-2.65,1.32-2.81,2.44c-0.18,1.27-0.07,1.62-0.15,2.32
				c-0.09,0.77,0.18,1.51,0.72,2.23c0.18,0.24,0.58-0.3,0.82-0.06c0.37,0.36,0.62,1.48,1.11,1.82C23.2,50.4,23.69,49.81,24,50
				c0.55,0.33,0.59,1.32,1.24,1.63c0.38,0.18,0.57-0.59,0.97-0.42c0.2,0.09,0.97,1.22,1.17,1.3c0.51,0.2,0.83-0.77,1.36-0.59
				c0.41,0.14,1.04,1.45,1.46,1.58c0.7,0.22,1.6-0.33,2.31-0.14c0.3,0.08,1.49,1.2,1.89,1.29c0.68,0.15,1.55-0.47,2.24-0.34
				c0.35,0.07,2.09,1.16,2.71,1.25s1.42-0.53,2.03-0.47c0.67,0.07,1.16,0.82,1.81,0.86c0.75,0.05,1.68-0.77,2.38-0.76
				c0.51,0,1.64,0.98,2.19,0.93c0.48-0.04,0.45-1.02,0.88-1.09s1.39,0.86,1.77,0.75c0.26-0.08,1.39-1.1,1.62-1.18
				c0.3-0.1,0.42,0.41,0.67,0.3c0.77-0.34,1.31-0.75,1.65-1.24l-1.73-0.44C52.59,53.24,52.58,53.26,52.55,53.27z"/>
		</g>
		<g>
			<path class="st1" d="M46.3,51.78c-0.21-0.05-0.38-0.14-0.52-0.26c-0.52,0.13-1.08,0.35-1.59,0.32c-0.85-0.04-1.52-0.95-2.42-1.04
				c-0.78-0.08-1.79,0.66-2.6,0.54c-0.73-0.11-1.28-1-2.02-1.15c-0.57-0.11-1.34,0.54-1.91,0.41c-0.48-0.11-0.77-0.99-1.24-1.11
				c-0.77-0.19-1.69,0.38-2.38,0.17c-0.52-0.16-0.83-1.08-1.3-1.24c-0.45-0.15-1.91,0.25-2.32,0.1c-0.31-0.12-0.33-0.81-0.62-0.92
				c-0.15-0.06-1.42,0.27-1.56,0.21c-0.44-0.18-0.3-1.06-0.68-1.28c-0.43-0.25-0.94-0.03-1.28-0.27c0.01,0.17,0.56,0.11,1.27,0.61
				c0.34,0.24,0.03,1.24,0.39,1.44c0.15,0.08,1.43-0.22,1.58-0.14c0.32,0.17,0.37,0.92,0.7,1.08c0.36,0.18,1.76-0.19,2.13-0.03
				c0.62,0.28,1.05,1.31,1.66,1.53c0.53,0.19,1.25-0.41,1.75-0.28c0.58,0.15,0.97,1.05,1.57,1.18c0.49,0.11,1.48-0.49,1.97-0.39
				c0.89,0.17,1.27,1.01,2.14,1.13c0.87,0.13,1.95-0.61,2.8-0.54c0.75,0.07,1.27,0.97,1.99,1c0.75,0.04,1.59-0.41,2.3-0.41
				c0.5,0,0.91,0.36,1.35,0.46c0.33,0.08,0.8-0.4,1.14-0.43c0.39-0.04,0.7,0.32,1.08,0.18c0.02-0.01,0.04-0.02,0.06-0.03L46.3,51.78
				z"/>
		</g>
	</g>
	<g>
		<g>
			<path class="st1" d="M93.69,58.73c-0.2,0.19-0.49,0.3-0.85,0.26c-0.12-0.01-0.23-0.03-0.35-0.04l0,0h-0.01
				c-0.38-0.04-1.47,0.14-1.35,0.9c0.39,0.3,1.01-0.44,1.35-0.16c0.27,0.23,0.27,1.43,0.51,1.64c0.24,0.22,0.71-0.54,0.91-0.33
				c0.37,0.38,0.5,1.42,0.76,1.75c0.21,0.28,0.56-0.14,0.69,0.11c0.26,0.46,0.38,0.86,0.36,1.16c0.09,0.56-0.77,2.5-0.79,2.52
				c-0.11,0.23-0.36,0.41-0.83,0.55c-0.26,0.07-0.29-0.42-0.7-0.39c-0.51,0.05-1.46,0.68-2.19,0.62c-0.42-0.03-0.54-0.72-1.04-0.79
				c-0.42-0.07-1.13,0.38-1.52,0.19c-0.4-0.2-0.63-0.77-1.12-0.9c-0.8-0.21-2.04,0.32-2.88,0.04c-0.56-0.18-0.8-1.01-1.38-1.22
				c-0.63-0.23-1.6,0.15-2.24-0.12c-0.42-0.17-1.6-1.56-1.97-1.73c-0.63-0.29-1.62,0.1-2.23-0.21c-0.34-0.18-1.23-1.56-1.51-1.71
				c-0.69-0.39-1.72-0.08-2.32-0.46c-0.85-0.53-0.69-1.45-1.38-1.95c-0.36-0.26-1.07,0.18-1.38-0.07c-0.08-0.06-0.21-0.38-0.34-0.68
				l0,0c-0.18-0.03-0.34-0.09-0.47-0.18c-0.67-0.11-1.34-0.22-2.02-0.33c0.21,0.5,0.17,1.2,0.62,1.57c0.32,0.27,0.7-0.43,1.04-0.17
				c0.17,0.13,0.64,1.42,0.81,1.55c0.44,0.32,1-0.55,1.47-0.23c0.36,0.24,0.65,1.66,1.02,1.89c0.62,0.39,1.64,0.07,2.27,0.43
				c0.27,0.15,1.15,1.52,1.51,1.71c0.62,0.32,1.62-0.07,2.25,0.23c0.32,0.15,1.75,1.64,2.32,1.88c0.58,0.24,1.5-0.16,2.08,0.05
				c0.64,0.24,0.92,1.08,1.54,1.28c0.71,0.23,1.82-0.33,2.5-0.15c0.5,0.13,1.35,1.36,1.9,1.44c0.48,0.07,0.68-0.88,1.12-0.84
				C90.29,67.87,91,69.01,91.4,69c0.27-0.01,1.62-0.73,1.86-0.74c0.31-0.02,0.3,0.5,0.57,0.46c1.27-0.21,2.09-0.69,2.48-1.52
				c0.31-0.67,0.69-2,0.79-2.43c0.36-1.02-0.03-2.18-0.9-3.41c-0.14-0.19-0.46,0.3-0.62,0.11s-0.15-1.06-0.33-1.25
				c-0.19-0.2-0.39-0.41-0.6-0.61s-0.68,0.56-0.92,0.36C93.65,59.88,93.79,58.82,93.69,58.73z"/>
		</g>
		<g>
			<path class="st1" d="M91.88,64.97c-0.38-0.03-0.58-0.5-1.04-0.57c-0.36-0.06-0.97,0.34-1.29,0.16c-0.34-0.19-0.54-0.67-0.96-0.77
				c-0.65-0.16-1.56,0.07-2.25-0.14c-0.81-0.25-1.23-1.29-2.08-1.61c-0.74-0.27-1.9,0.2-2.65-0.12c-0.68-0.29-0.99-1.29-1.68-1.61
				c-0.53-0.25-1.43,0.19-1.95-0.07c-0.44-0.22-0.5-1.15-0.93-1.38c-0.67-0.36-1.62-0.1-2.25-0.39c-0.08,0-0.16,0.02-0.25,0.01
				c-0.29-0.04-0.59-0.09-0.88-0.13c0.21,0.45,0.41,0.93,0.73,1.15c0.47,0.32,1.31-0.09,1.76,0.16c0.53,0.28,0.68,1.26,1.23,1.53
				c0.44,0.22,1.55-0.1,2.01,0.11c0.82,0.39,0.98,1.29,1.8,1.63s2.04-0.12,2.84,0.17c0.71,0.25,0.99,1.25,1.68,1.46
				c0.72,0.22,1.64-0.01,2.33,0.16c0.49,0.12,0.79,0.57,1.2,0.78c0.3,0.16,0.87-0.19,1.21-0.14c0.39,0.06,0.59,0.48,1,0.44
				c0.75-0.08,1.49-0.44,1.64-0.73c0.03-0.06,0.06-0.13,0.09-0.19C92.82,64.88,92.33,65.01,91.88,64.97z"/>
		</g>
	</g>
	<g>
		<path class="st1" d="M32.31,55.24c-0.16-0.02-0.33-0.03-0.49-0.05c-0.48-0.14-0.79,0.21-0.82,0.61c-1.78,0.54-4.17-0.34-5.73-0.98
			c-0.91-0.37-1.54-1.24-1.87-2.14c-0.56-1.53,0.67-1.46,1.76-1.03c0.77,0.3,1.08-0.95,0.31-1.25c-1.12-0.44-2.84-0.72-3.34,0.73
			c-0.43,1.24,0.2,2.73,1,3.67c1.12,1.33,2.79,1.83,4.43,2.25c1.63,0.41,3.97,0.78,5.32-0.49C33.38,56.11,33,55.18,32.31,55.24z"/>
	</g>
	<g>
		<path class="st1" d="M76.75,67.25c-0.58-0.11-1.14,0.65-0.61,1.09c0.68,0.57,1.35,2.04-0.12,2.02c-0.95-0.01-1.95-0.35-2.86-0.59
			c-2.5-0.68-4.37-2.15-6.67-3.21c-0.56-0.26-1.22,0.47-0.69,0.91c3.05,2.52,6.7,4.52,10.76,4.56
			C79.9,72.06,79.86,67.83,76.75,67.25z"/>
	</g>
	<g>
		<path class="st1" d="M80.11,66.94c-1.43,1.57-3.86,0.16-5.37-0.59c-0.33-0.16-0.74-0.41-1.17-0.65c-0.3,0.49-0.76,0.8-1.4,0.79
			c0.26,0.12,0.52,0.25,0.76,0.38c1.05,0.56,2.1,1.13,3.2,1.6c1.72,0.73,3.68,1.05,5.05-0.47C81.84,67.27,80.76,66.22,80.11,66.94z"
			/>
	</g>
	<g>
		<path class="st1" d="M90.84,67.75c-0.51-0.42-1.53-0.02-1.23,0.73c0.81,2.05-3.22,1.88-4.3,1.75c-1.95-0.24-3.98-0.92-5.47-2.23
			c-0.75-0.66-1.83,0.44-1.08,1.1c2.24,2,5.98,3.23,8.99,2.76C89.46,71.6,93.38,69.83,90.84,67.75z"/>
	</g>
	<g>
		<path class="st1" d="M97.55,78.05c0.05,0.01,0.1,0.01,0.14,0.01c-0.2-0.1-0.4-0.18-0.61-0.26c-0.21,0.14-0.44,0.25-0.71,0.28
			c-0.11,0.01-0.23,0.04-0.34,0.06c-0.09,0.12-0.22,0.22-0.37,0.29c-0.06,0.19-0.17,0.35-0.32,0.49c1.12,0.88,4.18,3.45,2.42,3.73
			c-1.82,0.29-3.74-0.51-5.54-0.66c-0.39-0.03-0.84,0.52-0.8,0.97c0.19,2.57-6.98,0.17-8.17-0.15c-0.65-0.17-1.27,0.74-0.92,1.4
			c0.33,0.64,0.67,1.18,1.04,1.69c-3.22-0.38-6.22-1.8-9.45-2.39c-0.63-0.11-1.22,0.53-1.07,1.27c0-0.01-5.76-1.4-6.27-1.57
			c-1.17-0.39-3.28-1.5-4.6-0.91c-0.42,0.19-0.77,0.45-1.12,0.69c-0.09,0.55-0.48,1.04-1.2,1.05c-1.09,0.02-2.03-0.6-2.9-0.91
			c-0.92-0.34-1.97-1.01-1.47-2.13c-0.19-0.12-0.4-0.23-0.6-0.31c-1.83-0.73-3.56-0.17-5.3-1.39c-1-0.7-2.59-2.5-3.94-2.31
			c-0.71,0.1-1.03,0.32-1.62,0.86c-2.49,2.28-5.1-1.54-6.85-2.77c-1.15-0.81-3.71-0.66-4.99-0.89c-3.82-0.66-1.8-2.54-3.58-3.66
			c-1.89-1.19-7.77,1.33-6.7-2.91c0.09-0.35,0.13-1.12-0.16-1.37c-1.73-1.54-4.14-1.75-3.5-4.96c-0.66-0.46-1.35-0.99-1.43-1.76
			c-0.36-0.06-0.73-0.12-1.1-0.17c-0.61-0.07-1.22-0.17-1.82-0.28c-1.35-0.02-1.36-0.74-0.05-2.15c-0.58-0.22-0.79-0.88-0.67-1.48
			c-1.82,0.78-4.29,2.66-1.98,4.18c1.71,1.12,3.8,1.16,5.75,1.53c-0.85-0.16,0.03,3.55,0.31,3.88c0.65,0.77,1.18,1.25,2.04,1.66
			c1.39,0.65,0.9,0.9,0.62,2c-0.34,1.36,0.64,2.98,1.79,3.2c3,0.57,5.29-0.82,7.36,2.34c1.92,2.95,6.27,1.53,8.72,3.73
			c1.65,1.48,2.89,2.61,5.15,2.37c0.72-0.08,1.31-0.46,1.93-0.87c1.29-0.86,2.84,0.72,3.88,1.54c2.26,1.78,4.89,0.85,7.18,2.69
			c1.22,0.98,3.59,2.78,5.26,1.61c1.54-1.08,2.08-1.13,3.82-0.61c2.03,0.61,4.01,1.38,6.08,1.87c1.25,0.3,3.03,0.31,3.56-0.92
			c3.67,1.07,6.94,2.96,11.03,1.96c0.58-0.14,0.79-1.14,0.39-1.54c-0.27-0.24-0.5-0.53-0.74-0.8c2.92,0.81,7.18,1.6,7.82-1.32
			c2.14,0.49,6,1.64,7.04-0.57C101.12,80.94,99.39,79.34,97.55,78.05z"/>
	</g>
	<g>
		<path class="st1" d="M41.81,36.46c-0.12-0.2-1.78,0.07-2.55,0.53s-1.61,1.28-1.44,1.57c0.17,0.29,1.64-0.05,2.43-0.42
			C41.04,37.77,41.93,36.66,41.81,36.46z"/>
	</g>
	<g>
		<path class="st1" d="M52.97,28.92c-0.06-0.22-1.73-0.41-2.6-0.17c-0.86,0.23-1.9,0.8-1.81,1.12c0.09,0.32,1.59,0.39,2.45,0.25
			C51.87,29.98,53.03,29.15,52.97,28.92z"/>
	</g>
	<g>
		<path class="st1" d="M37.36,30.47c-0.1-0.21-1.78-0.14-2.59,0.22c-0.82,0.36-1.76,1.08-1.62,1.38c0.14,0.3,1.64,0.14,2.47-0.12
			C36.43,31.68,37.45,30.68,37.36,30.47z"/>
	</g>
	<g>
		<path class="st1" d="M34.68,36.25c-0.12-0.2-1.78,0.08-2.55,0.54s-1.61,1.29-1.44,1.57c0.17,0.29,1.64-0.05,2.43-0.42
			C33.91,37.57,34.8,36.45,34.68,36.25z"/>
	</g>
	<g>
		<path class="st1" d="M64.19,60.86c-2.79,0.02-5.76-0.7-6.04-0.95s-0.32-1.48-0.05-2.62c0.13-0.55,0.05-1.58-0.08-1.03
			c-0.37,1.49-1.25,3.92-0.54,4.35c1.07,0.65,6.06,0.8,7.88,0.66C65.79,61.23,64.62,60.86,64.19,60.86z"/>
	</g>
	<g>
		<path class="st1" d="M54.48,54.42c-1.01,1.66-2.85,3.81-3.7,3.77c-0.85-0.04-4.23-0.85-6.3-1.17c-0.44-0.07-0.72,0.02-0.24,0.22
			c2.12,0.85,6.84,2.1,7.41,1.94c0.57-0.17,2.39-2.81,3.46-4.59C55.42,54.07,54.78,53.91,54.48,54.42z"/>
	</g>
</g>
</svg>
